<svg width="20" height="20" viewBox="0 0 20 20" fill="none" xmlns="http://www.w3.org/2000/svg">
<mask id="mask0_1217:34" style="mask-type:alpha" maskUnits="userSpaceOnUse" x="1" y="3" width="18" height="14">
<path d="M9.99935 11.6663L18.3327 8.33301V14.9997C18.3327 15.4417 18.1571 15.8656 17.8445 16.1782C17.532 16.4907 17.108 16.6663 16.666 16.6663H3.33268C2.89065 16.6663 2.46673 16.4907 2.15417 16.1782C1.84161 15.8656 1.66602 15.4417 1.66602 14.9997V8.33301L9.99935 11.6663ZM9.99935 9.99967L1.66602 6.66634V4.99967C1.66602 4.08301 2.41602 3.33301 3.33268 3.33301H16.666C17.108 3.33301 17.532 3.5086 17.8445 3.82116C18.1571 4.13372 18.3327 4.55765 18.3327 4.99967V6.66634L9.99935 9.99967Z" fill="white"/>
</mask>
<g mask="url(#mask0_1217:34)">
<path d="M9.99935 11.6663L18.3327 8.33301V14.9997C18.3327 15.4417 18.1571 15.8656 17.8445 16.1782C17.532 16.4907 17.108 16.6663 16.666 16.6663H3.33268C2.89065 16.6663 2.46673 16.4907 2.15417 16.1782C1.84161 15.8656 1.66602 15.4417 1.66602 14.9997V8.33301L9.99935 11.6663ZM9.99935 9.99967L1.66602 6.66634V4.99967C1.66602 4.08301 2.41602 3.33301 3.33268 3.33301H16.666C17.108 3.33301 17.532 3.5086 17.8445 3.82116C18.1571 4.13372 18.3327 4.55765 18.3327 4.99967V6.66634L9.99935 9.99967Z" fill="#9FA6B0"/>
<path d="M0.833984 0.833008H19.1673V19.1663H0.833984V0.833008Z" fill="#6C727C"/>
</g>
</svg>
