<svg width="20" height="20" viewBox="0 0 20 20" fill="none" xmlns="http://www.w3.org/2000/svg">
<mask id="mask0_1217:18" style="mask-type:alpha" maskUnits="userSpaceOnUse" x="1" y="1" width="18" height="17">
<path d="M17.0577 4.16699C17.2527 4.16252 17.446 4.20373 17.6222 4.28735C17.7984 4.37096 17.9526 4.49465 18.0725 4.64852C18.1924 4.80239 18.2745 4.98218 18.3125 5.17349C18.3504 5.36481 18.3431 5.56236 18.291 5.75033L16.766 11.1837C16.5847 11.8069 16.2051 12.354 15.6848 12.742C15.1644 13.13 14.5317 13.3377 13.8827 13.3337H7.44102C6.65768 13.3337 5.97435 12.8087 5.78268 12.067L3.54935 3.33366H2.51602C2.04935 3.33366 1.66602 2.95866 1.66602 2.50033C1.66602 2.04199 2.04935 1.66699 2.51602 1.66699H4.24935C4.64102 1.66699 4.98268 1.92533 5.07435 2.30033L5.54102 4.16699H17.0577ZM7.49935 14.5837C7.94138 14.5837 8.3653 14.7593 8.67786 15.0718C8.99042 15.3844 9.16602 15.8083 9.16602 16.2503C9.16602 16.6924 8.99042 17.1163 8.67786 17.4288C8.3653 17.7414 7.94138 17.917 7.49935 17.917C7.05732 17.917 6.6334 17.7414 6.32084 17.4288C6.00828 17.1163 5.83268 16.6924 5.83268 16.2503C5.83268 15.8083 6.00828 15.3844 6.32084 15.0718C6.6334 14.7593 7.05732 14.5837 7.49935 14.5837ZM14.166 14.5837C14.608 14.5837 15.032 14.7593 15.3445 15.0718C15.6571 15.3844 15.8327 15.8083 15.8327 16.2503C15.8327 16.6924 15.6571 17.1163 15.3445 17.4288C15.032 17.7414 14.608 17.917 14.166 17.917C13.724 17.917 13.3001 17.7414 12.9875 17.4288C12.6749 17.1163 12.4993 16.6924 12.4993 16.2503C12.4993 15.8083 12.6749 15.3844 12.9875 15.0718C13.3001 14.7593 13.724 14.5837 14.166 14.5837V14.5837Z" fill="white"/>
</mask>
<g mask="url(#mask0_1217:18)">
<path d="M17.0577 4.16699C17.2527 4.16252 17.446 4.20373 17.6222 4.28735C17.7984 4.37096 17.9526 4.49465 18.0725 4.64852C18.1924 4.80239 18.2745 4.98218 18.3125 5.17349C18.3504 5.36481 18.3431 5.56236 18.291 5.75033L16.766 11.1837C16.5847 11.8069 16.2051 12.354 15.6848 12.742C15.1644 13.13 14.5317 13.3377 13.8827 13.3337H7.44102C6.65768 13.3337 5.97435 12.8087 5.78268 12.067L3.54935 3.33366H2.51602C2.04935 3.33366 1.66602 2.95866 1.66602 2.50033C1.66602 2.04199 2.04935 1.66699 2.51602 1.66699H4.24935C4.64102 1.66699 4.98268 1.92533 5.07435 2.30033L5.54102 4.16699H17.0577ZM7.49935 14.5837C7.94138 14.5837 8.3653 14.7593 8.67786 15.0718C8.99042 15.3844 9.16602 15.8083 9.16602 16.2503C9.16602 16.6924 8.99042 17.1163 8.67786 17.4288C8.3653 17.7414 7.94138 17.917 7.49935 17.917C7.05732 17.917 6.6334 17.7414 6.32084 17.4288C6.00828 17.1163 5.83268 16.6924 5.83268 16.2503C5.83268 15.8083 6.00828 15.3844 6.32084 15.0718C6.6334 14.7593 7.05732 14.5837 7.49935 14.5837ZM14.166 14.5837C14.608 14.5837 15.032 14.7593 15.3445 15.0718C15.6571 15.3844 15.8327 15.8083 15.8327 16.2503C15.8327 16.6924 15.6571 17.1163 15.3445 17.4288C15.032 17.7414 14.608 17.917 14.166 17.917C13.724 17.917 13.3001 17.7414 12.9875 17.4288C12.6749 17.1163 12.4993 16.6924 12.4993 16.2503C12.4993 15.8083 12.6749 15.3844 12.9875 15.0718C13.3001 14.7593 13.724 14.5837 14.166 14.5837V14.5837Z" fill="#9FA6B0"/>
<path d="M0.833984 0.833008H19.1673V19.1663H0.833984V0.833008Z" fill="#6C727C"/>
</g>
</svg>
