<svg width="20" height="20" viewBox="0 0 20 20" fill="none" xmlns="http://www.w3.org/2000/svg">
<mask id="mask0_1217:26" style="mask-type:alpha" maskUnits="userSpaceOnUse" x="2" y="1" width="16" height="18">
<path d="M15.8333 12.5003V9.16699C15.8337 7.91052 15.4283 6.68753 14.6775 5.68001C13.9268 4.6725 12.8708 3.93432 11.6667 3.57533L11.65 3.56699L11.6667 3.33366C11.6667 2.89163 11.4911 2.46771 11.1785 2.15515C10.866 1.84259 10.442 1.66699 10 1.66699C9.76144 1.66703 9.52566 1.71828 9.30861 1.81728C9.09156 1.91628 8.89829 2.06072 8.74186 2.24085C8.58544 2.42097 8.46951 2.63258 8.40191 2.86136C8.3343 3.09015 8.3166 3.33078 8.35 3.56699L8.33333 3.57533C7.12924 3.93432 6.07324 4.6725 5.32248 5.68001C4.57172 6.68753 4.16634 7.91052 4.16667 9.16699V12.5003C4.16667 12.9424 3.99107 13.3663 3.67851 13.6788C3.36595 13.9914 2.94203 14.167 2.5 14.167V15.2003C3.0873 15.4459 3.6883 15.6574 4.3 15.8337C5.6 16.2253 6.95 16.4753 8.34167 16.592L8.33333 16.667C8.33333 17.109 8.50893 17.5329 8.82149 17.8455C9.13405 18.1581 9.55797 18.3337 10 18.3337C10.442 18.3337 10.866 18.1581 11.1785 17.8455C11.4911 17.5329 11.6667 17.109 11.6667 16.667V16.592C13.05 16.4753 14.4167 16.2253 15.7083 15.8337L15.8333 15.8003C16.4 15.6253 16.9583 15.4337 17.5 15.2003V14.167C17.058 14.167 16.634 13.9914 16.3215 13.6788C16.0089 13.3663 15.8333 12.9424 15.8333 12.5003Z" fill="white"/>
</mask>
<g mask="url(#mask0_1217:26)">
<path d="M15.8333 12.5003V9.16699C15.8337 7.91052 15.4283 6.68753 14.6775 5.68001C13.9268 4.6725 12.8708 3.93432 11.6667 3.57533L11.65 3.56699L11.6667 3.33366C11.6667 2.89163 11.4911 2.46771 11.1785 2.15515C10.866 1.84259 10.442 1.66699 10 1.66699C9.76144 1.66703 9.52566 1.71828 9.30861 1.81728C9.09156 1.91628 8.89829 2.06072 8.74186 2.24085C8.58544 2.42097 8.46951 2.63258 8.40191 2.86136C8.3343 3.09015 8.3166 3.33078 8.35 3.56699L8.33333 3.57533C7.12924 3.93432 6.07324 4.6725 5.32248 5.68001C4.57172 6.68753 4.16634 7.91052 4.16667 9.16699V12.5003C4.16667 12.9424 3.99107 13.3663 3.67851 13.6788C3.36595 13.9914 2.94203 14.167 2.5 14.167V15.2003C3.0873 15.4459 3.6883 15.6574 4.3 15.8337C5.6 16.2253 6.95 16.4753 8.34167 16.592L8.33333 16.667C8.33333 17.109 8.50893 17.5329 8.82149 17.8455C9.13405 18.1581 9.55797 18.3337 10 18.3337C10.442 18.3337 10.866 18.1581 11.1785 17.8455C11.4911 17.5329 11.6667 17.109 11.6667 16.667V16.592C13.05 16.4753 14.4167 16.2253 15.7083 15.8337L15.8333 15.8003C16.4 15.6253 16.9583 15.4337 17.5 15.2003V14.167C17.058 14.167 16.634 13.9914 16.3215 13.6788C16.0089 13.3663 15.8333 12.9424 15.8333 12.5003Z" fill="#9FA6B0"/>
<path d="M0.833984 0.833008H19.1673V19.1663H0.833984V0.833008Z" fill="#6C727C"/>
</g>
</svg>
